Coordinates
version=1
nRows=41
nColumns=24
inDegrees=yes

Units are S.I. units (second, meters, Newtons, ...)
If the header above contains a line with 'inDegrees', this indicates whether rotational values are in degrees (yes) or radians (no).

endheader
time	pelvis_tilt	pelvis_list	pelvis_rotation	pelvis_tx	pelvis_ty	pelvis_tz	hip_flexion_r	hip_adduction_r	hip_rotation_r	knee_angle_r	ankle_angle_r	subtalar_angle_r	mtp_angle_r	hip_flexion_l	hip_adduction_l	hip_rotation_l	knee_angle_l	ankle_angle_l	subtalar_angle_l	mtp_angle_l	lumbar_extension	lumbar_bending	lumbar_rotation
0.925000	9.802885	1.599519	-177.256658	0.251574	0.825424	-1.204748	28.051555	-15.749877	-25.711894	-34.470202	8.343873	2.967358	0.000000	30.746316	-17.729543	-18.995592	-35.586038	9.363127	12.795546	0.000000	-0.401422	0.157665	1.291820
0.930000	9.780938	1.590055	-177.355958	0.252513	0.823312	-1.204897	28.580948	-15.994649	-25.635948	-35.464282	8.821129	3.229246	0.000000	31.221190	-17.976693	-18.999958	-36.523732	9.873189	13.075458	0.000000	-0.553249	0.162901	1.381975
0.935000	9.705691	1.587587	-177.437437	0.253387	0.821160	-1.205074	29.037372	-16.245676	-25.605436	-36.460234	9.347562	3.593747	0.000000	31.629478	-18.226912	-18.978579	-37.445906	10.414752	13.356501	0.000000	-0.750404	0.183840	1.421244
0.940000	9.624476	1.554823	-177.556671	0.254127	0.818928	-1.205072	29.497699	-16.544799	-25.564120	-37.478327	9.917459	4.078734	0.000000	31.985576	-18.446734	-19.002474	-38.342915	10.998423	13.666346	0.000000	-0.935091	0.197904	1.509679
0.945000	9.533081	1.514611	-177.755026	0.254637	0.816526	-1.204854	29.986512	-16.865795	-25.497507	-38.555430	10.483354	4.572984	0.000000	32.289540	-18.699832	-19.128832	-39.275465	11.630726	13.895846	0.000000	-1.085828	0.256120	1.611970
0.950000	9.554327	1.606334	-177.872488	0.255731	0.814173	-1.205092	30.573001	-16.998483	-25.454455	-39.538498	10.966789	4.812490	0.000000	32.829750	-19.040663	-19.025278	-40.181430	12.127784	14.081835	0.000000	-1.208804	0.357871	1.749335
0.955000	9.369042	1.549680	-178.028765	0.256302	0.811730	-1.204945	30.963765	-17.351154	-25.424980	-40.635817	11.590630	5.363782	0.000000	33.063175	-19.263747	-19.082249	-41.143071	12.754505	14.338468	0.000000	-1.478145	0.382489	1.830557
0.960000	9.435488	1.594388	-178.159908	0.257184	0.809105	-1.205048	31.598460	-17.532826	-25.318970	-41.625675	12.034402	5.632710	0.000000	33.637997	-19.566416	-19.035075	-42.099597	13.285945	14.524791	0.000000	-1.518566	0.452832	1.935451
0.965000	9.461002	1.571870	-178.224928	0.258369	0.806445	-1.205207	32.218035	-17.805064	-25.220591	-42.649475	12.523318	5.888356	0.000000	34.203381	-19.788130	-18.961990	-43.031761	13.672419	14.240511	0.000000	-1.641552	0.428894	1.983118
0.970000	9.531185	1.650240	-178.395654	0.259289	0.803614	-1.205588	32.891221	-17.915850	-25.075964	-43.680425	13.030216	6.135745	0.000000	34.833689	-20.184518	-18.934041	-44.099788	14.253076	14.725274	0.000000	-1.676809	0.511885	2.094602
0.975000	9.467721	1.674717	-178.487835	0.260167	0.800956	-1.205754	33.409040	-18.124397	-24.973109	-44.728384	13.545668	6.330232	0.000000	35.296396	-20.494218	-18.918068	-45.058940	14.683249	14.602673	0.000000	-1.874864	0.533825	2.175312
0.980000	9.514636	1.726398	-178.621499	0.260965	0.798216	-1.205799	34.028170	-18.298712	-24.862468	-45.735081	14.018495	6.557740	0.000000	35.871403	-20.824886	-18.902997	-46.050419	15.158939	14.734683	0.000000	-1.930702	0.631310	2.258156
0.985000	9.447721	1.721999	-178.695977	0.261842	0.795436	-1.205953	34.538972	-18.539448	-24.741472	-46.775914	14.542097	6.728865	0.000000	36.341881	-21.105722	-18.892200	-47.047790	15.658304	14.952141	0.000000	-2.133286	0.616479	2.305336
0.990000	9.460156	1.670613	-178.729909	0.262505	0.792712	-1.205596	35.067622	-18.878834	-24.651298	-47.725128	14.988855	6.992014	0.000000	36.852868	-21.264787	-18.878718	-48.004116	16.161515	15.143512	0.000000	-2.210041	0.640427	2.281935
0.995000	9.521850	1.747837	-178.863626	0.263556	0.789700	-1.206133	35.735197	-18.942733	-24.436805	-48.726548	15.452706	7.090841	0.000000	37.488241	-21.696614	-18.878190	-49.023458	16.609204	15.429946	0.000000	-2.283494	0.684193	2.396602
1.000000	9.598635	1.810386	-178.950450	0.264431	0.786762	-1.206212	36.368732	-19.075482	-24.283839	-49.677187	15.884593	7.183854	0.000000	38.125620	-22.036020	-18.819513	-50.014236	17.058564	15.689032	0.000000	-2.314286	0.771815	2.464285
1.005000	9.571838	1.826661	-178.973352	0.265330	0.783859	-1.206420	36.910979	-19.270833	-24.136997	-50.684144	16.365594	7.231824	0.000000	38.664427	-22.320266	-18.744757	-50.986638	17.484795	15.939852	0.000000	-2.471225	0.776814	2.478259
1.010000	9.629896	1.873836	-179.049218	0.266134	0.780929	-1.206512	37.522418	-19.415654	-23.971452	-51.633364	16.791267	7.333142	0.000000	39.264223	-22.638498	-18.685716	-51.940934	17.928982	16.145890	0.000000	-2.522449	0.839581	2.524080
1.015000	9.647399	1.937177	-179.054189	0.266946	0.777979	-1.206661	38.057706	-19.563419	-23.850389	-52.571005	17.223487	7.390095	0.000000	39.855100	-22.925797	-18.527895	-52.882673	18.361881	16.357893	0.000000	-2.614289	0.896591	2.529020
1.020000	9.638432	1.919296	-179.026567	0.267811	0.775002	-1.206859	38.590936	-19.788470	-23.677252	-53.529095	17.652570	7.415289	0.000000	40.402432	-23.127283	-18.393227	-53.797920	18.821280	16.620865	0.000000	-2.756331	0.846377	2.471219
1.025000	9.697413	1.971805	-179.069718	0.268533	0.771989	-1.206899	39.175435	-19.919765	-23.501676	-54.436715	18.064755	7.457874	0.000000	41.009091	-23.406283	-18.251807	-54.729440	19.273027	16.808577	0.000000	-2.800196	0.918531	2.502990
1.030000	9.662256	1.926717	-179.022784	0.269108	0.769169	-1.206523	39.649957	-20.233477	-23.356093	-55.375302	18.478862	7.509862	0.000000	41.487554	-23.489195	-18.076837	-55.615052	19.706706	16.908317	0.000000	-2.935767	0.927618	2.425326
1.035000	9.759593	2.020652	-179.088417	0.270029	0.765999	-1.206882	40.318204	-20.273920	-23.147408	-56.321430	18.904952	7.469936	0.000000	42.177620	-23.812828	-17.860608	-56.543091	20.092291	17.003273	0.000000	-2.965577	0.995647	2.498652
1.040000	9.758447	2.062749	-179.078467	0.270707	0.763016	-1.206935	40.833792	-20.435131	-22.995385	-57.252713	19.297967	7.426210	0.000000	42.737372	-24.020247	-17.628826	-57.442160	20.507902	17.101960	0.000000	-3.082386	1.044677	2.458661
1.045000	9.799682	2.085047	-179.073432	0.271459	0.760020	-1.207032	41.390496	-20.575397	-22.782379	-58.130129	19.677346	7.376355	0.000000	43.327178	-24.200276	-17.401529	-58.298669	20.924913	17.180941	0.000000	-3.161760	1.061199	2.425776
1.050000	9.738036	2.054439	-178.990280	0.272147	0.757037	-1.207088	41.835272	-20.822804	-22.615654	-59.050601	20.071601	7.331660	0.000000	43.815480	-24.277785	-17.137567	-59.147018	21.362438	17.248630	0.000000	-3.352236	1.013901	2.340553
1.055000	9.753458	2.057705	-178.940750	0.272823	0.753983	-1.207131	42.357762	-21.020664	-22.451400	-59.945760	20.497507	7.290119	0.000000	44.414752	-24.404118	-16.867187	-60.099507	21.666799	17.227273	0.000000	-3.458646	0.998569	2.296459
1.060000	9.768219	2.112086	-178.949024	0.273409	0.750983	-1.207185	42.868774	-21.136612	-22.278333	-60.814337	20.885380	7.265845	0.000000	44.938185	-24.597422	-16.629285	-60.831597	22.231196	17.346772	0.000000	-3.553422	1.062254	2.312809
1.065000	9.750027	2.083977	-178.877087	0.274105	0.747944	-1.207202	43.366152	-21.369807	-22.097910	-61.722382	21.310386	7.195538	0.000000	45.532158	-24.689554	-16.338219	-61.925796	22.416013	17.292441	0.000000	-3.704216	1.017298	2.245309
1.070000	9.732431	2.079306	-178.865848	0.274725	0.744846	-1.207242	43.864785	-21.541687	-21.873609	-62.603867	21.698654	7.154890	0.000000	45.982989	-24.794328	-16.113459	-62.507959	23.033920	17.390556	0.000000	-3.846219	1.014793	2.235020
1.075000	9.766079	2.046856	-178.791104	0.275488	0.741775	-1.207363	44.402442	-21.753578	-21.657958	-63.464835	22.067041	7.162493	0.000000	46.659501	-24.869273	-15.796286	-63.679320	23.049073	17.244105	0.000000	-3.949130	0.959679	2.147284
1.080000	9.835939	2.042305	-178.758490	0.276230	0.738645	-1.207422	44.979779	-21.938025	-21.478504	-64.313956	22.418598	7.137813	0.000000	47.342940	-24.974529	-15.329460	-64.518706	23.293243	17.464754	0.000000	-4.007645	0.955274	2.099920
1.085000	9.750034	1.924323	-178.686399	0.276622	0.735686	-1.206957	45.393760	-22.315609	-21.277689	-65.206026	22.738691	7.224398	0.000000	47.627089	-24.911821	-15.367370	-65.267351	23.877526	17.280018	0.000000	-4.199062	0.892280	2.049225
1.090000	9.832071	2.004993	-178.718801	0.277447	0.732402	-1.207423	45.994784	-22.330049	-21.081565	-66.042934	23.199229	7.134054	0.000000	48.320669	-25.188053	-15.122485	-66.160731	24.101404	17.244236	0.000000	-4.264909	0.920460	2.113097
1.095000	9.886283	2.018436	-178.704213	0.278177	0.729228	-1.207603	46.566266	-22.458504	-20.858489	-66.894678	23.485850	7.076500	0.000000	48.916715	-25.349066	-14.902175	-66.971411	24.441631	17.319827	0.000000	-4.345130	0.915712	2.107113
1.100000	9.921090	2.007458	-178.677154	0.278855	0.726054	-1.207700	47.089612	-22.643971	-20.681583	-67.714978	23.840495	7.071326	0.000000	49.453348	-25.469483	-14.685084	-67.744860	24.915066	17.507879	0.000000	-4.445719	0.890592	2.099468
1.105000	9.930958	2.013606	-178.673933	0.279532	0.722911	-1.207894	47.601014	-22.761803	-20.453554	-68.531913	24.185908	7.039046	0.000000	49.985375	-25.644090	-14.512935	-68.540404	25.261427	17.642359	0.000000	-4.570665	0.886057	2.129507
1.110000	9.984662	2.023738	-178.678648	0.280208	0.719666	-1.208056	48.167994	-22.895092	-20.259065	-69.361782	24.535551	7.006245	0.000000	50.558074	-25.804123	-14.317354	-69.329813	25.582487	17.697728	0.000000	-4.653306	0.887514	2.155318
1.115000	10.036017	2.042215	-178.694563	0.280881	0.716434	-1.208179	48.735170	-23.025982	-20.072330	-70.194593	24.882258	6.978755	0.000000	51.132531	-25.986815	-14.133632	-70.122133	25.903604	17.769088	0.000000	-4.733708	0.911114	2.170096
1.120000	10.068791	2.075534	-178.738285	0.281509	0.713205	-1.208351	49.274118	-23.121584	-19.892160	-71.012796	25.217606	6.954611	0.000000	51.686507	-26.222450	-13.992809	-70.917315	26.205936	17.806036	0.000000	-4.829154	0.952621	2.235412
1.125000	10.133278	2.116025	-178.747575	0.282168	0.709922	-1.208562	49.824739	-23.222842	-19.731169	-71.810064	25.551245	6.938843	0.000000	52.296750	-26.445831	-13.778792	-71.743005	26.613858	17.893724	0.000000	-4.896097	0.983776	2.237274
